<?xml version="1.0" encoding="iso-8859-1"?>
<!-- Generator: Adobe Illustrator 19.0.0, SVG Export Plug-In . SVG Version: 6.00 Build 0)  -->
<svg version="1.1" id="Capa_1" xmlns="http://www.w3.org/2000/svg" xmlns:xlink="http://www.w3.org/1999/xlink" x="0px" y="0px"
	 viewBox="0 0 426.667 426.667" style="enable-background:new 0 0 426.667 426.667;" xml:space="preserve">
<g>
	<g>
		<g>
			<polygon points="124.16,213.333 146.773,190.72 169.387,213.333 192,190.72 169.387,168.107 192,145.493 169.387,122.773 
				146.773,145.493 124.16,122.773 101.44,145.493 124.16,168.107 101.44,190.72 			"/>
			<path d="M213.333,256c-49.707,0-91.947,31.147-109.013,74.667h218.027C305.28,287.147,263.04,256,213.333,256z"/>
			<polygon points="302.507,122.773 279.893,145.493 257.28,122.773 234.667,145.493 257.28,168.107 234.667,190.72 257.28,213.333 
				279.893,190.72 302.507,213.333 325.227,190.72 302.507,168.107 325.227,145.493 			"/>
			<path d="M213.227,0C95.36,0,0,95.467,0,213.333s95.36,213.333,213.227,213.333s213.44-95.467,213.44-213.333S331.093,0,213.227,0
				z M213.333,384c-94.293,0-170.667-76.373-170.667-170.667S119.04,42.667,213.333,42.667S384,119.04,384,213.333
				S307.627,384,213.333,384z"/>
		</g>
	</g>
</g>
<g>
</g>
<g>
</g>
<g>
</g>
<g>
</g>
<g>
</g>
<g>
</g>
<g>
</g>
<g>
</g>
<g>
</g>
<g>
</g>
<g>
</g>
<g>
</g>
<g>
</g>
<g>
</g>
<g>
</g>
</svg>
