<?xml version="1.0" encoding="iso-8859-1"?>
<!-- Generator: Adobe Illustrator 19.0.0, SVG Export Plug-In . SVG Version: 6.00 Build 0)  -->
<svg version="1.1" id="Capa_1" xmlns="http://www.w3.org/2000/svg" xmlns:xlink="http://www.w3.org/1999/xlink" x="0px" y="0px"
	 viewBox="0 0 426.667 426.667" style="enable-background:new 0 0 426.667 426.667;" xml:space="preserve">
<g>
	<g>
		<g>
			<path d="M213.333,330.667c49.707,0,91.947-31.147,109.013-74.667H104.32C121.387,299.52,163.627,330.667,213.333,330.667z"/>
			<path d="M213.227,0C95.36,0,0,95.467,0,213.333s95.36,213.333,213.227,213.333s213.44-95.467,213.44-213.333S331.093,0,213.227,0
				z M213.333,384c-94.293,0-170.667-76.373-170.667-170.667S119.04,42.667,213.333,42.667S384,119.04,384,213.333
				S307.627,384,213.333,384z"/>
			<polygon points="146.773,169.387 169.387,192 192,169.387 146.773,124.16 101.44,169.387 124.16,192 			"/>
			<polygon points="234.667,169.387 257.28,192 279.893,169.387 302.507,192 325.227,169.387 279.893,124.16 			"/>
		</g>
	</g>
</g>
<g>
</g>
<g>
</g>
<g>
</g>
<g>
</g>
<g>
</g>
<g>
</g>
<g>
</g>
<g>
</g>
<g>
</g>
<g>
</g>
<g>
</g>
<g>
</g>
<g>
</g>
<g>
</g>
<g>
</g>
</svg>
