<svg id="Capa_1" enable-background="new 0 0 512 512" height="512" viewBox="0 0 512 512" width="512" xmlns="http://www.w3.org/2000/svg"><g><path d="m91 331h330c49.629 0 91-40.371 91-90 0-44.897-34.032-82.207-77.069-88.931-6.724-43.037-44.034-76.069-88.931-76.069-16.89 0-33.12 4.673-47.197 13.389-21.416-35.992-59.971-58.389-102.803-58.389-66.167 0-120 53.833-120 120 0 .41 0 .835.015 1.245-42.525 7.163-76.015 44.238-76.015 88.755 0 49.629 41.371 90 91 90z"/><path d="m440.746 376.776c-1.933-.644-47.856-15.776-94.746-15.776s-92.813 15.132-94.731 15.762c-.44.146-43.36 14.238-85.269 14.238s-84.829-14.092-85.269-14.238l-14.224-4.717-9.478 28.447 14.224 4.731c1.935.645 47.857 15.777 94.747 15.777s92.813-15.132 94.731-15.762c.44-.146 43.36-14.238 85.269-14.238s84.829 14.092 85.269 14.238l14.224 4.717 9.478-28.447z"/><path d="m346 421c-46.89 0-92.813 15.132-94.731 15.762-.44.146-43.36 14.238-85.269 14.238s-84.829-14.092-85.269-14.238l-14.224-4.717-9.478 28.447 14.224 4.731c1.935.645 47.857 15.777 94.747 15.777s92.813-15.132 94.731-15.762c.44-.146 43.36-14.238 85.269-14.238s84.829 14.092 85.269 14.238l14.224 4.717 9.478-28.447-14.224-4.731c-1.934-.645-47.857-15.777-94.747-15.777z"/></g></svg>