<svg id="Capa_1" enable-background="new 0 0 512 512" height="512" viewBox="0 0 512 512" width="512" xmlns="http://www.w3.org/2000/svg"><g><g><path d="m406.625 301.125h-331.375c-41.493 0-75.25-33.757-75.25-75.25 0-39.832 31.108-72.534 70.305-75.089 17.239-36.536 54.284-60.411 95.32-60.411 4.268 0 8.53.257 12.753.768 24.954-37.89 67.399-61.018 113.205-61.018 45.338 0 87.691 22.87 112.711 60.276.779-.018 1.556-.026 2.33-.026 58.105 0 105.376 47.271 105.376 105.375s-47.271 105.375-105.375 105.375z"/></g><g><path d="m75.25 391.625c-8.284 0-15-6.716-15-15v-30.25c0-8.284 6.716-15 15-15s15 6.716 15 15v30.25c0 8.284-6.716 15-15 15z"/></g><g><path d="m135.5 481.875c-8.284 0-15-6.716-15-15v-30.25c0-8.284 6.716-15 15-15s15 6.716 15 15v30.25c0 8.284-6.716 15-15 15z"/></g><g><path d="m195.75 391.625c-8.284 0-15-6.716-15-15v-30.25c0-8.284 6.716-15 15-15s15 6.716 15 15v30.25c0 8.284-6.716 15-15 15z"/></g><g><path d="m256 481.875c-8.284 0-15-6.716-15-15v-30.25c0-8.284 6.716-15 15-15s15 6.716 15 15v30.25c0 8.284-6.716 15-15 15z"/></g><g><path d="m316.25 391.625c-8.284 0-15-6.716-15-15v-30.25c0-8.284 6.716-15 15-15s15 6.716 15 15v30.25c0 8.284-6.716 15-15 15z"/></g><g><path d="m376.5 481.875c-8.284 0-15-6.716-15-15v-30.25c0-8.284 6.716-15 15-15s15 6.716 15 15v30.25c0 8.284-6.716 15-15 15z"/></g><g><path d="m436.75 391.625c-8.284 0-15-6.716-15-15v-30.25c0-8.284 6.716-15 15-15s15 6.716 15 15v30.25c0 8.284-6.716 15-15 15z"/></g></g></svg>