<svg id="Capa_1" enable-background="new 0 0 512 512" height="512" viewBox="0 0 512 512" width="512" xmlns="http://www.w3.org/2000/svg"><g><path d="m434.931 154.267c-6.724-43.037-44.033-76.069-88.931-76.069-16.89 0-33.12 4.673-47.197 13.389-21.416-35.992-59.971-58.39-102.803-58.39-66.167 0-120 53.833-120 120 0 .41 0 .835.015 1.245-42.525 7.163-76.015 44.239-76.015 88.755 0 49.629 41.371 90 91 90h38.789l-49.116 49.116 60 30-45.278 45.278 21.211 21.211 74.722-74.722-60-30 40.884-40.884h77.578l-49.116 49.116 60 30-45.278 45.278 21.211 21.211 74.722-74.722-60-30 40.884-40.884h77.578l-49.116 49.116 60 30-45.278 45.278 21.211 21.211 74.722-74.722-60-30 40.884-40.884h8.786c49.629 0 91-40.371 91-90 0-44.894-34.032-82.204-77.069-88.927z"/></g></svg>