<svg id="Layer_1" enable-background="new 0 0 512 512" height="512" viewBox="0 0 512 512" width="512" xmlns="http://www.w3.org/2000/svg"><g><path d="m469.762 69.653c-20.188-34.32-40.054-62.201-40.89-63.372-2.815-3.942-7.361-6.281-12.205-6.281s-9.39 2.339-12.206 6.281c-.836 1.17-20.702 29.052-40.89 63.372-2.893 4.917-5.626 9.686-8.217 14.323 6.493 10.489 13.142 21.464 19.766 32.725 34.754 59.082 58.843 108.484 72.624 149.093 37.354-12.917 64.256-48.438 64.256-90.127 0-23.02-13.816-57.698-42.238-106.014z"/><path d="m268.206 6.281c-2.816-3.942-7.362-6.281-12.206-6.281s-9.39 2.339-12.206 6.281c-.405.568-41.016 57.562-81.056 125.63-54.68 92.955-82.404 161.733-82.404 204.422-.001 96.863 78.803 175.667 175.666 175.667s175.667-78.804 175.667-175.667c0-42.689-27.725-111.467-82.404-204.422-40.041-68.068-80.652-125.062-81.057-125.63z"/><path d="m132.57 124.083c-13.639-21.479-24.42-36.613-25.031-37.468-2.816-3.942-7.362-6.281-12.206-6.281s-9.39 2.339-12.206 6.281c-.836 1.17-20.702 29.052-40.89 63.372-28.421 48.316-42.237 82.993-42.237 106.013 0 36.321 20.42 67.96 50.381 84.049-.433-24.311 2.637-79.06 82.189-215.966z"/></g></svg>