<?xml version="1.0" encoding="iso-8859-1"?>
<!-- Generator: Adobe Illustrator 19.0.0, SVG Export Plug-In . SVG Version: 6.00 Build 0)  -->
<svg version="1.1" id="Capa_1" xmlns="http://www.w3.org/2000/svg" xmlns:xlink="http://www.w3.org/1999/xlink" x="0px" y="0px"
	 viewBox="0 0 512 512" style="enable-background:new 0 0 512 512;" xml:space="preserve">
<g>
	<g>
		<path d="M490.667,256h-38.251l24.448-24.448c4.16-4.16,4.16-10.923,0-15.083c-4.16-4.16-10.923-4.16-15.083,0l-42.155,42.155
			l-49.323,36.992c-8.384-12.245-18.581-23.232-30.485-32.341c-21.291,21.803-50.987,35.392-83.819,35.392
			c-32.832,0-62.528-13.589-83.84-35.413c-11.904,9.088-22.101,20.096-30.485,32.341l-49.323-36.992l-42.155-42.155
			c-4.16-4.16-10.923-4.16-15.083,0s-4.16,10.923,0,15.083L59.584,256H21.333c-5.888,0-10.667,4.779-10.667,10.667
			s4.779,10.667,10.667,10.667h60.437l49.173,36.885c-8.683,18.155-13.611,38.251-13.611,59.115
			C117.333,449.792,179.541,512,256,512s138.667-62.208,138.667-138.667c0-20.864-4.928-40.96-13.611-59.115l49.173-36.885h60.437
			c5.888,0,10.667-4.779,10.667-10.667S496.555,256,490.667,256z M256,426.667c-5.888,0-10.667-4.779-10.667-10.667
			c0-5.888,4.779-10.667,10.667-10.667s10.667,4.779,10.667,10.667C266.667,421.888,261.888,426.667,256,426.667z M256,384
			c-5.888,0-10.667-4.779-10.667-10.667c0-5.888,4.779-10.667,10.667-10.667s10.667,4.779,10.667,10.667
			C266.667,379.221,261.888,384,256,384z M256,341.333c-5.888,0-10.667-4.779-10.667-10.667S250.112,320,256,320
			s10.667,4.779,10.667,10.667S261.888,341.333,256,341.333z"/>
	</g>
</g>
<g>
	<g>
		<path d="M373.333,122.667c0-19.243-17.045-35.563-43.989-46.123l-7.445-44.672c-2.048-12.139-10.56-21.867-22.208-25.365
			C289.835,3.541,274.261,0,256,0c-17.045,0-31.979,1.963-44.373,5.867c-11.179,3.499-19.371,13.12-21.376,25.088l-7.595,45.589
			c-26.944,10.56-43.989,26.88-43.989,46.123c0,9.792,4.565,23.573,24.448,36.267c-1.856,7.317-3.115,14.784-3.115,22.4
			c0,52.928,43.072,96,96,96c52.928,0,96-43.072,96-96c0-7.616-1.259-15.083-3.115-22.4
			C368.768,146.261,373.333,132.459,373.333,122.667z M224,160c0-5.888,4.779-10.667,10.667-10.667s10.667,4.779,10.667,10.667
			s-4.779,10.667-10.667,10.667S224,165.888,224,160z M276.779,206.037l-10.667,32c-1.451,4.352-5.525,7.296-10.112,7.296
			s-8.661-2.944-10.112-7.296l-10.667-32c-1.856-5.589,1.152-11.627,6.741-13.483c5.632-1.856,11.627,1.152,13.483,6.741
			l0.555,1.643l0.555-1.643c1.856-5.589,7.829-8.597,13.483-6.741C275.627,194.411,278.656,200.448,276.779,206.037z
			 M277.333,170.667c-5.888,0-10.667-4.779-10.667-10.667s4.779-10.667,10.667-10.667S288,154.112,288,160
			S283.221,170.667,277.333,170.667z M341.184,138.304c-2.709-5.163-5.781-10.197-9.451-14.955
			c-1.003-1.301-2.304-2.347-3.797-3.072c-35.627-17.301-108.245-17.301-143.872,0c-1.472,0.704-2.773,1.771-3.797,3.072
			c-3.669,4.757-6.741,9.792-9.451,14.955C163.947,133.12,160,127.659,160,122.667c0-17.621,41.045-37.333,96-37.333
			c54.955,0,96,19.712,96,37.333C352,127.659,348.053,133.12,341.184,138.304z"/>
	</g>
</g>
<g>
</g>
<g>
</g>
<g>
</g>
<g>
</g>
<g>
</g>
<g>
</g>
<g>
</g>
<g>
</g>
<g>
</g>
<g>
</g>
<g>
</g>
<g>
</g>
<g>
</g>
<g>
</g>
<g>
</g>
</svg>
