<svg id="Layer_1" enable-background="new 0 0 512.001 512.001" height="512" viewBox="0 0 512.001 512.001" width="512" xmlns="http://www.w3.org/2000/svg"><g><path d="m487.315 105.032c-12.108-10.685-27.322-16.969-43.19-18.095-3.629-12.756-10.703-24.348-20.614-33.53-13.53-12.535-31.145-19.438-49.598-19.438-14.554 0-28.673 4.418-40.558 12.347-5.467-10.061-12.888-19.063-21.865-26.365-15.618-12.704-35.324-19.701-55.49-19.701s-39.872 6.997-55.49 19.7c-8.977 7.302-16.397 16.304-21.864 26.365-11.886-7.929-26.005-12.347-40.559-12.347-18.454 0-36.068 6.903-49.598 19.438-9.91 9.18-16.982 20.77-20.612 33.521-37.871 2.639-67.877 34.293-67.877 72.823 0 20.918 8.989 40.854 24.662 54.697 11.724 10.356 26.37 16.568 41.699 17.978l86.869-110.488c8.118-10.325 20.308-16.247 33.443-16.247 6.666 0 13.333 1.599 19.28 4.625 18.037 9.174 27.146 29.972 21.655 49.453l-18.468 65.502 23.104 6.056c13.726 3.599 24.707 13.744 29.378 27.139 4.67 13.396 2.38 28.167-6.125 39.516l-14.91 19.892c5.068.905 10.226 1.378 15.414 1.378 20.046 0 39.663-6.922 55.235-19.492 8.929-7.207 16.338-16.1 21.832-26.045 11.941 8.049 26.166 12.537 40.845 12.537 33.302 0 61.878-22.662 70.406-53.701 15.808-1.165 30.96-7.45 43.021-18.102 15.672-13.843 24.661-33.779 24.661-54.697 0-20.931-8.998-40.875-24.686-54.719z"/><path d="m233.294 268.343c-1.374-3.941-4.62-6.939-8.657-7.997l-52.664-13.805 26.76-94.91c1.623-5.759-1.049-11.862-6.382-14.575-5.335-2.714-11.84-1.278-15.538 3.425l-113.082 143.826c-2.585 3.288-3.36 7.648-2.066 11.626 1.294 3.977 4.486 7.048 8.511 8.185l51.641 14.597-6.375 77.503c-.458 5.568 2.823 10.766 8.046 12.748 1.452.551 2.956.816 4.444.816 3.864 0 7.614-1.791 10.034-5.018l93.523-124.775c2.503-3.339 3.18-7.705 1.805-11.646z"/><path d="m274.346 405.344c-4.345-6.372-9.27-13.594-18.346-13.594s-14.001 7.222-18.346 13.594c-3.438 5.04-7.314 11.416-10.916 17.953-10.443 18.95-15.738 33.57-15.738 43.453 0 24.813 20.187 45 45 45s45-20.187 45-45c0-9.884-5.295-24.504-15.738-43.453-3.601-6.537-7.478-12.913-10.916-17.953z"/><path d="m409.346 334.344c-4.345-6.372-9.27-13.594-18.346-13.594s-14.001 7.222-18.346 13.594c-3.438 5.041-7.314 11.416-10.916 17.953-10.443 18.95-15.738 33.57-15.738 43.453 0 24.813 20.187 45 45 45s45-20.187 45-45c0-9.884-5.295-24.503-15.738-43.453-3.601-6.537-7.478-12.912-10.916-17.953z"/></g></svg>